<svg width="354" height="108" viewBox="0 0 354 108" fill="none" xmlns="http://www.w3.org/2000/svg">
<circle cx="53.8018" cy="54" r="53.2205" fill="url(#paint0_linear_68_45)"/>
<path fill-rule="evenodd" clip-rule="evenodd" d="M53.8018 107.22C83.1946 107.22 107.022 83.3928 107.022 54C85.5016 91.0105 76.218 90.8783 53.8018 54C31.3855 17.1217 21.1879 16.9459 0.581299 54C0.581299 83.3928 24.4089 107.22 53.8018 107.22Z" fill="url(#paint1_linear_68_45)"/>
<path fill-rule="evenodd" clip-rule="evenodd" d="M63.9253 16.9771V43.5873V77.5732H43.3892V43.5873V27.1005C43.3892 22.4726 45.9923 16.9771 63.9253 16.9771Z" fill="#EBF1F3"/>
<path fill-rule="evenodd" clip-rule="evenodd" d="M63.9253 43.5873V81.478C63.9253 87.8413 56.9835 90.7337 43.3892 90.7337V43.5873H63.9253Z" fill="#EBF1F3"/>
<path d="M16.7788 64.1234V43.5873H43.389H90.5354V64.1234H63.9252H16.7788Z" fill="#EBF1F3"/>
<path fill-rule="evenodd" clip-rule="evenodd" d="M16.7788 43.5873V64.1234H63.9252L43.389 43.5873H16.7788Z" fill="#EBF1F3"/>
<path d="M154.182 41.5795V69.7795H146.342V54.2195L141.022 69.7795H134.462L129.102 54.0995V69.7795H121.262V41.5795H130.742L137.822 59.8995L144.742 41.5795H154.182ZM166.485 47.8595V52.4595H175.485V58.4195H166.485V63.4995H176.685V69.7795H158.645V41.5795H176.685V47.8595H166.485ZM191.719 41.5795C194.679 41.5795 197.266 42.1795 199.479 43.3795C201.719 44.5528 203.439 46.2062 204.639 48.3395C205.839 50.4728 206.439 52.9128 206.439 55.6595C206.439 58.3795 205.826 60.8062 204.599 62.9395C203.399 65.0728 201.679 66.7528 199.439 67.9795C197.226 69.1795 194.652 69.7795 191.719 69.7795H180.559V41.5795H191.719ZM191.119 62.8595C193.412 62.8595 195.212 62.2328 196.519 60.9795C197.826 59.7262 198.479 57.9528 198.479 55.6595C198.479 53.3395 197.826 51.5528 196.519 50.2995C195.212 49.0195 193.412 48.3795 191.119 48.3795H188.399V62.8595H191.119ZM209.013 55.6195C209.013 52.8462 209.586 50.3795 210.733 48.2195C211.906 46.0328 213.56 44.3395 215.693 43.1395C217.826 41.9128 220.28 41.2995 223.053 41.2995C226.573 41.2995 229.533 42.2462 231.933 44.1395C234.333 46.0062 235.88 48.5528 236.573 51.7795H228.133C227.626 50.7128 226.92 49.8995 226.013 49.3395C225.133 48.7795 224.106 48.4995 222.933 48.4995C221.12 48.4995 219.666 49.1528 218.573 50.4595C217.506 51.7395 216.973 53.4595 216.973 55.6195C216.973 57.8062 217.506 59.5528 218.573 60.8595C219.666 62.1395 221.12 62.7795 222.933 62.7795C224.106 62.7795 225.133 62.4995 226.013 61.9395C226.92 61.3795 227.626 60.5662 228.133 59.4995H236.573C235.88 62.7262 234.333 65.2862 231.933 67.1795C229.533 69.0462 226.573 69.9795 223.053 69.9795C220.28 69.9795 217.826 69.3795 215.693 68.1795C213.56 66.9528 211.906 65.2595 210.733 63.0995C209.586 60.9128 209.013 58.4195 209.013 55.6195ZM248.126 63.7795H256.886V69.7795H240.286V41.5795H248.126V63.7795ZM267.774 41.5795V69.7795H259.934V41.5795H267.774ZM298.359 69.7795H290.519L280.079 54.0195V69.7795H272.239V41.5795H280.079L290.519 57.5395V41.5795H298.359V69.7795ZM310.665 41.5795V69.7795H302.825V41.5795H310.665ZM314.169 55.6195C314.169 52.8462 314.743 50.3795 315.889 48.2195C317.063 46.0328 318.716 44.3395 320.849 43.1395C322.983 41.9128 325.436 41.2995 328.209 41.2995C331.729 41.2995 334.689 42.2462 337.089 44.1395C339.489 46.0062 341.036 48.5528 341.729 51.7795H333.289C332.783 50.7128 332.076 49.8995 331.169 49.3395C330.289 48.7795 329.263 48.4995 328.089 48.4995C326.276 48.4995 324.823 49.1528 323.729 50.4595C322.663 51.7395 322.129 53.4595 322.129 55.6195C322.129 57.8062 322.663 59.5528 323.729 60.8595C324.823 62.1395 326.276 62.7795 328.089 62.7795C329.263 62.7795 330.289 62.4995 331.169 61.9395C332.076 61.3795 332.783 60.5662 333.289 59.4995H341.729C341.036 62.7262 339.489 65.2862 337.089 67.1795C334.689 69.0462 331.729 69.9795 328.209 69.9795C325.436 69.9795 322.983 69.3795 320.849 68.1795C318.716 66.9528 317.063 65.2595 315.889 63.0995C314.743 60.9128 314.169 58.4195 314.169 55.6195Z" fill="#EBF1F3"/>
<defs>
<linearGradient id="paint0_linear_68_45" x1="15.7665" y1="9.60138" x2="95.1633" y2="95.3616" gradientUnits="userSpaceOnUse">
<stop stop-color="#348C47"/>
<stop offset="1" stop-color="#257587"/>
</linearGradient>
<linearGradient id="paint1_linear_68_45" x1="15.7665" y1="9.60138" x2="95.1633" y2="95.3616" gradientUnits="userSpaceOnUse">
<stop stop-color="#276A36"/>
<stop offset="1" stop-color="#2C93A9"/>
</linearGradient>
</defs>
</svg>
