<svg width="359" height="277" viewBox="0 0 359 277" fill="none" xmlns="http://www.w3.org/2000/svg">
<circle cx="179.5" cy="90.5" r="90.5" fill="url(#paint0_linear_153_72)"/>
<path fill-rule="evenodd" clip-rule="evenodd" d="M179.5 181C229.482 181 270 140.482 270 90.5C233.405 153.435 217.618 153.211 179.5 90.5C141.382 27.7894 124.041 27.4906 89 90.5C89 140.482 129.518 181 179.5 181Z" fill="url(#paint1_linear_153_72)"/>
<path fill-rule="evenodd" clip-rule="evenodd" d="M196.715 27.5435V72.7935V130.586H161.793V72.7935V44.7581C161.793 36.8886 166.22 27.5435 196.715 27.5435Z" fill="#EBF1F3"/>
<path fill-rule="evenodd" clip-rule="evenodd" d="M196.715 72.7935V137.226C196.715 148.046 184.91 152.965 161.793 152.965V72.7935H196.715Z" fill="#EBF1F3"/>
<path d="M116.543 107.715V72.7936H161.793H241.965V107.715L196.715 107.715H116.543Z" fill="#EBF1F3"/>
<path fill-rule="evenodd" clip-rule="evenodd" d="M116.543 72.7936V107.715H196.715L161.793 72.7936H116.543Z" fill="#EBF1F3"/>
<path d="M56.256 205.88V251H43.712V226.104L35.2 251H24.704L16.128 225.912V251H3.584V205.88H18.752L30.08 235.192L41.152 205.88H56.256ZM75.9405 215.928V223.288H90.3405V232.824H75.9405V240.952H92.2605V251H63.3965V205.88H92.2605V215.928H75.9405ZM116.315 205.88C121.051 205.88 125.19 206.84 128.731 208.76C132.315 210.637 135.067 213.283 136.987 216.696C138.907 220.109 139.867 224.013 139.867 228.408C139.867 232.76 138.886 236.643 136.923 240.056C135.003 243.469 132.251 246.157 128.667 248.12C125.126 250.04 121.008 251 116.315 251H98.459V205.88H116.315ZM115.355 239.928C119.024 239.928 121.904 238.925 123.995 236.92C126.086 234.915 127.131 232.077 127.131 228.408C127.131 224.696 126.086 221.837 123.995 219.832C121.904 217.784 119.024 216.76 115.355 216.76H111.003V239.928H115.355ZM143.986 228.344C143.986 223.907 144.903 219.96 146.738 216.504C148.615 213.005 151.26 210.296 154.674 208.376C158.087 206.413 162.012 205.432 166.45 205.432C172.082 205.432 176.818 206.947 180.658 209.976C184.498 212.963 186.972 217.037 188.082 222.2H174.578C173.767 220.493 172.636 219.192 171.186 218.296C169.778 217.4 168.135 216.952 166.258 216.952C163.356 216.952 161.031 217.997 159.282 220.088C157.575 222.136 156.722 224.888 156.722 228.344C156.722 231.843 157.575 234.637 159.282 236.728C161.031 238.776 163.356 239.8 166.258 239.8C168.135 239.8 169.778 239.352 171.186 238.456C172.636 237.56 173.767 236.259 174.578 234.552H188.082C186.972 239.715 184.498 243.811 180.658 246.84C176.818 249.827 172.082 251.32 166.45 251.32C162.012 251.32 158.087 250.36 154.674 248.44C151.26 246.477 148.615 243.768 146.738 240.312C144.903 236.813 143.986 232.824 143.986 228.344ZM206.566 241.4H220.582V251H194.022V205.88H206.566V241.4ZM238.003 205.88V251H225.459V205.88H238.003ZM286.939 251H274.395L257.691 225.784V251H245.147V205.88H257.691L274.395 231.416V205.88H286.939V251ZM306.628 205.88V251H294.084V205.88H306.628ZM312.236 228.344C312.236 223.907 313.153 219.96 314.988 216.504C316.865 213.005 319.51 210.296 322.924 208.376C326.337 206.413 330.262 205.432 334.7 205.432C340.332 205.432 345.068 206.947 348.908 209.976C352.748 212.963 355.222 217.037 356.332 222.2H342.828C342.017 220.493 340.886 219.192 339.436 218.296C338.028 217.4 336.385 216.952 334.508 216.952C331.606 216.952 329.281 217.997 327.532 220.088C325.825 222.136 324.972 224.888 324.972 228.344C324.972 231.843 325.825 234.637 327.532 236.728C329.281 238.776 331.606 239.8 334.508 239.8C336.385 239.8 338.028 239.352 339.436 238.456C340.886 237.56 342.017 236.259 342.828 234.552H356.332C355.222 239.715 352.748 243.811 348.908 246.84C345.068 249.827 340.332 251.32 334.7 251.32C330.262 251.32 326.337 250.36 322.924 248.44C319.51 246.477 316.865 243.768 314.988 240.312C313.153 236.813 312.236 232.824 312.236 228.344Z" fill="#EBF1F3"/>
<defs>
<linearGradient id="paint0_linear_153_72" x1="114.822" y1="15.0014" x2="249.834" y2="160.834" gradientUnits="userSpaceOnUse">
<stop stop-color="#348C47"/>
<stop offset="1" stop-color="#257587"/>
</linearGradient>
<linearGradient id="paint1_linear_153_72" x1="114.822" y1="15.0014" x2="249.834" y2="160.834" gradientUnits="userSpaceOnUse">
<stop stop-color="#276A36"/>
<stop offset="1" stop-color="#2C93A9"/>
</linearGradient>
</defs>
</svg>
