<svg width="181" height="181" viewBox="0 0 181 181" fill="none" xmlns="http://www.w3.org/2000/svg">
<circle cx="90.5" cy="90.5" r="90.5" fill="url(#paint0_linear_28_134)"/>
<path fill-rule="evenodd" clip-rule="evenodd" d="M90.5 181C140.482 181 181 140.482 181 90.5C144.405 153.435 128.618 153.211 90.5 90.5C52.3818 27.7894 35.041 27.4906 0 90.5C0 140.482 40.5182 181 90.5 181Z" fill="url(#paint1_linear_28_134)"/>
<path fill-rule="evenodd" clip-rule="evenodd" d="M107.715 27.5435V72.7935V130.586H72.7935V72.7935V44.7582C72.7935 36.8886 77.2201 27.5435 107.715 27.5435Z" fill="#EBF1F3"/>
<path fill-rule="evenodd" clip-rule="evenodd" d="M107.715 72.7935V137.226C107.715 148.046 95.9103 152.965 72.7935 152.965V72.7935H107.715Z" fill="#EBF1F3"/>
<path d="M27.5435 107.715L27.5435 72.7935H72.7935H152.965V107.715L107.715 107.715H27.5435Z" fill="#EBF1F3"/>
<path fill-rule="evenodd" clip-rule="evenodd" d="M27.5435 72.7935L27.5435 107.715H107.715L72.7935 72.7935H27.5435Z" fill="#EBF1F3"/>
<defs>
<linearGradient id="paint0_linear_28_134" x1="25.822" y1="15.0014" x2="160.834" y2="160.834" gradientUnits="userSpaceOnUse">
<stop stop-color="#348C47"/>
<stop offset="1" stop-color="#257587"/>
</linearGradient>
<linearGradient id="paint1_linear_28_134" x1="25.822" y1="15.0014" x2="160.834" y2="160.834" gradientUnits="userSpaceOnUse">
<stop stop-color="#276A36"/>
<stop offset="1" stop-color="#2C93A9"/>
</linearGradient>
</defs>
</svg>
